<?xml version="1.0" encoding="UTF-8"?>
<!-- Generator: Adobe Illustrator 13.0.2, SVG Export Plug-In . SVG Version: 6.00 Build 14948)  -->
<!DOCTYPE svg PUBLIC "-//W3C//DTD SVG 1.1//EN" "http://www.w3.org/Graphics/SVG/1.1/DTD/svg11.dtd">
<svg version="1.1" id="Calque_1" xmlns="http://www.w3.org/2000/svg" xmlns:xlink="http://www.w3.org/1999/xlink" x="0px" y="0px" width="123.61px" height="125.76px" viewBox="0 0 123.61 125.76" enable-background="new 0 0 123.61 125.76" xml:space="preserve">
<path fill="none" stroke="#FFFFFF" stroke-width="0" stroke-linecap="round" stroke-linejoin="round" d="M0.011,0.72  c0,41.68,0,83.36,0,125.04c41.199,0,82.4,0,123.6,0c0-41.921,0-83.839,0-125.76C82.492,0,41.37,0,0.251,0  C-0.029,0.041-0.01,0.379,0.011,0.72z"/>
<path fill="#050000" stroke="#000000" stroke-width="0" stroke-linecap="round" stroke-linejoin="round" d="M3.851,56.88  c1.875,3.062,6.286,4.794,10.32,5.52c-3.6,21.854,5.785,38.208,17.28,47.52c9.626,7.797,24.468,13.2,40.32,10.32  c13.498-2.452,24.493-10.479,31.44-20.641c6.735-9.851,11.13-25.374,6.479-41.76c4.692-0.748,9.717-1.163,12.24-4.08  c0.052-9.999-4.273-15.911-9.84-21.36c-6.505-6.367-13.335-10.312-21.84-14.64c-7.029-3.576-14.632-6.652-23.28-7.92  c-0.736-1.941-0.329-4.134-0.72-6c-2.249-0.137-5.195,0.203-6.72,0c-0.284,0.117-0.544,0.256-0.72,0.48  c-0.067,2.467,0.547,4.253,0.48,6.72c-9.243,1.915-16.295,5.3-24.48,9.36c-9.875,4.898-17.957,10.942-24.72,18.96  C5.735,44.523-0.715,49.42,3.851,56.88z"/>
<path fill="#F9BA06" stroke="#FFFFFF" stroke-width="0" stroke-linecap="round" stroke-linejoin="round" d="M24.491,97.44  c7.703,11.266,22.038,20.568,39.36,19.92c17.409-0.652,30.38-10.228,37.44-21.601c7.217-11.626,9.833-32.751,0.72-46.56  c-5.724-3.712-13.155-5.204-20.4-7.92c-7.037-2.639-15.007-5.472-23.04-5.52c-0.079,0-0.162-0.006-0.24,0  c-3.503,0.292-7.329,2.729-11.04,3.6c-5.467,1.284-10.551,2.881-14.88,4.8c-4.286,1.9-8.381,3.702-10.56,6.96  C12.875,64.543,17.014,86.504,24.491,97.44z"/>
<path fill="#020000" stroke="#000000" stroke-width="0" stroke-linecap="round" stroke-linejoin="round" d="M25.931,65.04  c0.156,19.995,30.532,19.669,30.48-0.24c-0.023-8.815-7.445-15.833-16.8-14.88C31.767,50.719,25.869,57.123,25.931,65.04z"/>
<path fill="#020000" stroke="#000000" stroke-width="0" stroke-linecap="round" stroke-linejoin="round" d="M83.051,80.64  c7.981-0.146,14.55-6.614,14.88-14.399c0.426-10.062-7.827-16.826-16.8-15.84c-8.55,0.939-14.171,7.654-13.68,16.081  C67.905,74.279,74.336,80.801,83.051,80.64z"/>
<path fill="#FFFFFF" stroke="#FFFFFF" stroke-width="0" stroke-linecap="round" stroke-linejoin="round" d="M29.771,67.2  c1.94,12.828,20.939,11.152,22.8,0.24c1.567-9.189-5.502-15.075-13.68-13.681C32.895,54.783,28.724,60.28,29.771,67.2z"/>
<path fill="#FFFFFF" stroke="#FFFFFF" stroke-width="0" stroke-linecap="round" stroke-linejoin="round" d="M71.291,67.68  c1.939,12.828,20.938,11.152,22.8,0.24c1.567-9.188-5.503-15.075-13.68-13.68C74.415,55.263,70.244,60.76,71.291,67.68z"/>
<path fill="#050000" stroke="#000000" stroke-width="0" stroke-linecap="round" stroke-linejoin="round" d="M53.771,78.48  c-0.206,1.394-1.983,1.216-2.16,2.64c3.445,5.921,15.521,5.449,19.68,0.479c-0.063-1.536-0.285-2.915-1.44-3.359  C67.102,82.719,56.664,83.086,53.771,78.48z"/>
<path fill="#050000" d="M36.011,94.08c8.396,6.568,26.5,11.277,40.32,6.72c1.326-0.438,2.738-1.567,3.84-2.64  c-0.583-5.279-3.393-2.688-6.96-1.68c-2.283,0.645-6.163,1.229-8.16,1.439c-8.81,0.932-14.93-1.887-20.16-4.32  c-2.641-1.229-4.706-2.354-6.24-3.6c-1.957-1.589-2.51-4.383-4.56-5.04c-0.547-0.176-2.935,0.736-3.12,2.4  C30.597,90.711,35.383,91.721,36.011,94.08z"/>
<path opacity="0.44" fill="#703E03" d="M29.203,45.82c1.69-0.807,2.947-2.117,4.708-2.838c1.607-0.658,3.201-1.199,4.833-1.834  c1.597-0.621,3.242-0.886,4.83-1.362c1.673-0.502,3.236-0.53,4.937-0.953c1.737-0.431,3.513-1.197,5.333-1.667  c1.412-0.365,2.669-1.173,4.1-1.389c2.5-0.378,4.977,0.133,7.4,0.723c1.939,0.472,3.729,1.028,5.667,1.333  c1.651,0.26,2.876,0.773,4.5,1.167c1.959,0.475,4.125,1.768,6.1,2.28c1.979,0.514,4.2,0.655,6.067,1.554  c3.612,1.739,7.296,2.528,10.721,4.448c3.489,1.956,5.612,4.218,7.009,8.829c1.659,5.478,2.217,13.509,1.604,19.056  c-0.16,1.446-0.494,3.428-0.833,4.833c-0.397,1.653-0.967,3.458-1.334,5.167c-0.561,2.605-1.511,4.076-3.067,6.319  c-1.573,2.268-3.493,4.336-5.037,6.634c-1.276,1.901-2.764,3.523-4.345,5.158c-2.773,2.867-5.986,5.034-9.654,6.366  c-1.673,0.607-3.126,1.624-4.729,2.355c-1.852,0.843-3.623,1.234-5.775,1.448c-4.083,0.406-8.257-0.108-12.199-0.676  c-1.575-0.227-4.594-0.044-5.444-1.467c3.956-1.482,8.64-0.723,12.827-1.323c3.803-0.546,6.978-2.452,10.142-4.46  c1.951-1.237,4.331-2.173,6.021-3.749c1.562-1.456,2.935-3.242,4.524-4.629c2.886-2.518,5.756-5.546,7.175-9.199  c0.799-2.058,1.604-4.157,2.005-6.343c0.375-2.045,0.383-4.43,0.938-6.433c-1.547-0.019-1.213,3.997-8.046,4.497  c3.166-2.167,8.166-9.453,8.166-11.834c0-3.333,0.088-5.217-1.166-8.333c-0.651-1.618-0.942-3.283-2.167-4.5  c-1.729-1.716-3.293-4.038-5.449-4.86c-4.349-1.659-8.537-3.441-13.143-4.029c-4.493-0.574-8.646-2.018-13.129-2.407  c-5.001-0.434-10.206-0.379-15.091,0.449c-1.575,0.267-3.17,0.636-4.752,0.796c-1.8,0.182-3.32-0.131-5.04,0.612  c-1.65,0.714-2.971,1.943-4.793,2.351c-1.8,0.403-3.505,0.673-5.208,1.529c-1.437,0.723-2.78,1.875-4.157,2.753  c-1.905,1.214-4.284,1.733-2.436-1.195C23.46,48.393,26.531,47.094,29.203,45.82z"/>
<path opacity="0.46" fill="#703E03" d="M62.178,85.5c-1.299,0.069-2.554,0.292-3.833,0.009c-1.331-0.294-2.541-1.274-3.974-1.15  c-0.102,1.731,3.847,3.931,5.187,4.675c2.28,1.268,5.146,2.301,7.787,1.812c1.651-0.306,3.156-1.4,4.135-2.741  c0.764-1.047,2.148-4.111,0.522-5.095c-1.138-0.688-2.841,0.876-3.844,1.316C66.261,85.161,64.229,85.392,62.178,85.5z"/>
</svg>